HIERARCHY
ROOT ui
{
	 OFFSET 0 0 0
	 CHANNELS 3 XPosition YPosition Z Position
	 EndSite
	 {
	 OFFSET 0 -1 0
	 }
}
ROOT li
{
	 OFFSET 0 0 0
	 CHANNELS 3 XPosition YPosition Z Position
	 EndSite
	 {
	 OFFSET 0 -1 0
	 }
}
ROOT ul
{
	 OFFSET 0 0 0
	 CHANNELS 3 XPosition YPosition Z Position
	 EndSite
	 {
	 OFFSET 0 -1 0
	 }
}
ROOT ll
{
	 OFFSET 0 0 0
	 CHANNELS 3 XPosition YPosition Z Position
	 EndSite
	 {
	 OFFSET 0 -1 0
	 }
}
ROOT tt
{
	 OFFSET 0 0 0
	 CHANNELS 3 XPosition YPosition Z Position
	 EndSite
	 {
	 OFFSET 0 -1 0
	 }
}
ROOT tb
{
	 OFFSET 0 0 0
	 CHANNELS 3 XPosition YPosition Z Position
	 EndSite
	 {
	 OFFSET 0 -1 0
	 }
}
ROOT td
{
	 OFFSET 0 0 0
	 CHANNELS 3 XPosition YPosition Z Position
	 EndSite
	 {
	 OFFSET 0 -1 0
	 }
}
ROOT v
{
	 OFFSET 0 0 0
	 CHANNELS 3 XPosition YPosition Z Position
	 EndSite
	 {
	 OFFSET 0 -1 0
	 }
}
ROOT bn
{
	 OFFSET 0 0 0
	 CHANNELS 3 XPosition YPosition Z Position
	 EndSite
	 {
	 OFFSET 0 -1 0
	 }
}
MOTION
Frames: 29
Frame Time: 0.002
0.002617746114730835	0.0016091569662094116	0		0.403927001953125	-2.495094970703125	0		-0.9941227416992188	0.15149388122558594	0		-0.7242442626953125	-2.748169189453125	0		1.7213411865234376	-1.2859119873046876	0		2.9349638671875	-0.3141068115234375	0		4.16124462890625	0.5104781799316406	0		5.996728515625	0.5262636108398437	0		-0.14994354248046876	5.93578955078125	0		
-0.0016563680171966552	0.005082230091094971	0		0.4265491943359375	-2.506029052734375	0		-0.997515380859375	0.14790330505371094	0		-0.692594970703125	-2.75830126953125	0		1.724954345703125	-1.2934805908203124	0		2.90193115234375	-0.35904010009765625	0		4.16956298828125	0.48995098876953125	0		6.00249072265625	0.5338701171875	0		-0.16472825622558593	5.92541552734375	0		
8.291289806365967E-4	-0.0035188300609588622	0		0.4003274230957031	-2.503153076171875	0		-1.0019722290039061	0.1433668975830078	0		-0.7278040771484375	-2.755334228515625	0		1.726404541015625	-1.3079859619140626	0		2.927398681640625	-0.369871826171875	0		4.16585302734375	0.4706373291015625	0		6.00281005859375	0.516576904296875	0		6.702300161123275E-5	5.95223876953125	0		
-0.0035266740322113035	0.0010262869596481324	0		0.42591836547851564	-2.509062744140625	0		-0.9954935913085937	0.1376962432861328	0		-0.7240574340820313	-2.75194677734375	0		1.734693359375	-1.3295679931640625	0		2.93160009765625	-0.3943383483886719	0		4.15928759765625	0.4633959350585938	0		6.012603515625	0.5321597290039063	0		-0.13197279357910155	5.93079150390625	0		
0.0019118859767913818	-0.004546398162841797	0		0.41213153076171877	-2.535316162109375	0		-1.059989013671875	0.13718414306640625	0		-0.755312744140625	-2.744968017578125	0		1.7421546630859375	-1.3371007080078126	0		2.9461796875	-0.3919334716796875	0		4.1805634765625	0.44874298095703125	0		6.018208984375	0.5388319091796875	0		-0.14963255310058593	5.93457421875	0		
5.10824978351593E-4	0.0030302200317382814	0		0.4291395263671875	-2.5080087890625	0		-0.9845305786132813	0.1355120086669922	0		-0.7136922607421875	-2.743094970703125	0		1.72958642578125	-1.34328271484375	0		2.93905615234375	-0.43115939331054687	0		4.16472314453125	0.4297033386230469	0		6.01091357421875	0.5547329711914063	0		-0.13046856689453126	5.92881689453125	0		
9.402220249176026E-4	0.002619018077850342	0		0.42826727294921874	-2.533385986328125	0		-0.9881680908203125	0.13112872314453125	0		-0.7131646118164062	-2.74353173828125	0		1.8115369873046876	-1.37791259765625	0		2.986354248046875	-0.44120062255859377	0		4.176728515625	0.4032563171386719	0		6.0273212890625	0.5542861328125	0		-0.13025112915039064	5.9284013671875	0		
-0.0017188489437103271	-7.003750205039978E-4	0		0.4546571044921875	-2.539144287109375	0		-0.9877848510742188	0.13072943115234376	0		-0.7126865234375	-2.743922119140625	0		1.7509930419921875	-1.3762659912109374	0		2.959400146484375	-0.4640438842773438	0		4.169994140625	0.39613775634765624	0		6.0296748046875	0.5530872192382813	0		-0.13104351806640624	5.9290458984375	0		
-0.0013718219995498657	-0.0010209950208663941	0		0.42713079833984374	-2.536014892578125	0		-0.9765835571289062	0.12120858001708984	0		-0.7102258911132813	-2.74229541015625	0		1.815921142578125	-1.40654443359375	0		2.98639892578125	-0.4876937255859375	0		4.18290625	0.3687432861328125	0		6.0338798828125	0.5448869018554687	0		-0.11472107696533203	5.93847021484375	0		
-0.0010637040138244628	-0.0012939640283584596	0		0.43941268920898435	-2.54246240234375	0		-1.0453482666015625	0.11698442077636718	0		-0.7267947387695313	-2.7393232421875	0		1.7701016845703126	-1.4170504150390626	0		3.0052041015625	-0.5211776733398438	0		4.17289404296875	0.34874185180664063	0		6.0434208984375	0.5606353149414063	0		-0.146694580078125	5.93069384765625	0		
0.018344783782958986	0.007185754776000977	0		0.44380587768554686	-2.53873828125	0		-0.9660431518554687	0.11850691986083985	0		-0.69426025390625	-2.7270634765625	0		1.8341807861328125	-1.4322254638671874	0		3.013657470703125	-0.5104553833007812	0		4.20104443359375	0.34118316650390623	0		6.05267724609375	0.5604158935546875	0		-0.14754963684082031	5.93148193359375	0		
0.002487544059753418	0.0012621660232543946	0		0.42951327514648435	-2.511672607421875	0		-0.973919189453125	0.11143901062011718	0		-0.7319500122070313	-2.725660888671875	0		1.8331649169921875	-1.45034326171875	0		2.986299560546875	-0.5491427001953125	0		4.19775927734375	0.30814678955078123	0		6.05289990234375	0.560366943359375	0		-0.1625906982421875	5.92153955078125	0		
0.002683854103088379	0.0011402180194854737	0		0.4277220764160156	-2.513755859375	0		-0.9787861938476563	0.10737828826904297	0		-0.693726806640625	-2.727384765625	0		1.844105712890625	-1.4686021728515626	0		3.05026513671875	-0.5652042236328125	0		4.21052978515625	0.280898681640625	0		6.04821142578125	0.56842578125	0		-0.13039163208007812	5.92791796875	0		
-2.065100073814392E-4	-0.0018836519718170167	0		0.4363853454589844	-2.5479560546875	0		-1.0527470703125	0.10044155883789062	0		-0.727450927734375	-2.72193896484375	0		1.8560018310546875	-1.4868306884765625	0		3.05505615234375	-0.5893065185546875	0		4.2194638671875	0.26674957275390626	0		6.05323486328125	0.5603639526367188	0		-0.12933517456054688	5.92682958984375	0		
-9.464100003242493E-5	-0.0019032909870147705	0		0.44060287475585935	-2.543033203125	0		-0.9725994262695312	0.1021707000732422	0		-0.722216064453125	-2.716045166015625	0		1.869896484375	-1.50204443359375	0		3.089108642578125	-0.5938178100585938	0		4.2562431640625	0.24520701599121095	0		6.04946435546875	0.5684735717773437	0		-0.14821046447753905	5.9321025390625	0		
0.003015733003616333	0.001081488013267517	0		0.44272000122070315	-2.541029052734375	0		-1.0434501953125	0.10829219055175782	0		-0.7160360107421875	-2.71011328125	0		1.8738031005859375	-1.51305712890625	0		3.08174560546875	-0.6216476440429688	0		4.27317919921875	0.23701345825195314	0		6.05752294921875	0.5684339599609375	0		-0.11410902404785156	5.93760546875	0		
0.0030285589694976807	0.0011645760536193848	0		0.4837287292480469	-2.542577392578125	0		-0.9765852661132812	0.09833302307128906	0		-0.6800565795898438	-2.713591552734375	0		1.9384774169921875	-1.535965087890625	0		3.15769140625	-0.6267202758789062	0		4.29377001953125	0.20980218505859374	0		6.0575322265625	0.5685557861328125	0		-0.1482229461669922	5.93221484375	0		
0.002985546112060547	0.0012993849515914918	0		0.45673095703125	-2.540023193359375	0		-1.05666552734375	0.09670136260986328	0		-0.7248812866210937	-2.69976513671875	0		1.9312872314453124	-1.54571240234375	0		3.147296630859375	-0.649414306640625	0		4.32239794921875	0.18850961303710936	0		6.05336328125	0.56077978515625	0		-0.1303557891845703	5.92807080078125	0		
-1.6439199447631836E-4	-0.0014673000574111938	0		0.49042840576171876	-2.553359619140625	0		-0.9699347534179688	0.08554093170166016	0		-0.7120726318359375	-2.70578076171875	0		1.9739810791015624	-1.5591844482421875	0		3.1639912109375	-0.6624810791015625	0		4.33515283203125	0.17950718688964845	0		6.04938232421875	0.5690426635742187	0		-0.11432204437255859	5.93800830078125	0		
-0.018347759246826172	-0.001950572967529297	0		0.450281005859375	-2.55150244140625	0		-1.035112548828125	0.0857835693359375	0		-0.6942423095703125	-2.705821533203125	0		1.9875633544921876	-1.575158935546875	0		3.220382080078125	-0.6911179809570313	0		4.38772900390625	0.1629318389892578	0		6.06207080078125	0.560086669921875	0		-0.14661758422851562	5.93074267578125	0		
0.006532312870025635	0.005951807022094726	0		0.498156982421875	-2.5439560546875	0		-0.9603621826171875	0.08491419982910156	0		-0.6992672729492188	-2.69145556640625	0		2.036254150390625	-1.5796273193359376	0		3.235556640625	-0.66406494140625	0		4.40034765625	0.15401951599121094	0		6.05697021484375	0.5694496459960937	0		-0.11276640319824219	5.936505859375	0		
0.0021564860343933107	0.0023556458950042725	0		0.4668104248046875	-2.5451357421875	0		-1.0456353759765624	0.08857199096679688	0		-0.7016176147460937	-2.69308154296875	0		2.0308289794921874	-1.5862115478515626	0		3.245729248046875	-0.6968958129882813	0		4.427921875	0.14692031860351562	0		6.05253369140625	0.5618423461914063	0		-0.14912698364257812	5.93340478515625	0		
0.0017654310464859009	0.0027479469776153565	0		0.49133062744140626	-2.550131103515625	0		-0.9801732788085937	0.07894779205322265	0		-0.7020175170898437	-2.69268701171875	0		2.0373236083984376	-1.592933349609375	0		3.27531689453125	-0.6979782104492187	0		4.45217236328125	0.12391403198242187	0		6.05214453125	0.5622147216796874	0		-0.12959371948242188	5.9274892578125	0		
-0.027748003005981445	6.38679027557373E-4	0		0.43693212890625	-2.54385693359375	0		-1.0537584228515624	0.07252457427978516	0		-0.7004698486328125	-2.690273193359375	0		2.087545654296875	-1.6122882080078125	0		3.305622802734375	-0.7120298461914063	0		4.4724677734375	0.10901181030273438	0		6.0516767578125	0.5626282348632813	0		-0.14895706176757811	5.933224609375	0		
7.435449957847595E-4	0.0036783649921417238	0		0.4752215576171875	-2.552973388671875	0		-1.041125244140625	0.08481697845458984	0		-0.7210194091796875	-2.688470947265625	0		2.083031494140625	-1.608750244140625	0		3.326358642578125	-0.6928880615234375	0		4.50495947265625	0.11196279144287109	0		6.055251953125	0.5710181274414062	0		-0.11439995574951171	5.938171875	0		
-0.025868844985961915	0.005614275932312012	0		0.4766182250976562	-2.549474609375	0		-1.041755615234375	0.08535788726806641	0		-0.6816592407226563	-2.687552001953125	0		2.14624169921875	-1.61822216796875	0		3.34823974609375	-0.7237313842773437	0		4.540185546875	0.10290695190429687	0		6.054625	0.5715075073242187	0		-0.11498787689208985	5.9387060546875	0		
-5.934389829635621E-4	0.004786046981811523	0		0.5179005126953125	-2.548555419921875	0		-0.9747325439453125	0.06788954925537109	0		-0.6932633056640625	-2.678802001953125	0		2.145521728515625	-1.61766650390625	0		3.391754638671875	-0.7088698120117187	0		4.55435498046875	0.09521031188964844	0		6.053923828125	0.5720292358398438	0		-0.11564225006103515	5.93928173828125	0		
5.087379813194275E-4	-0.0026332340240478517	0		0.497978515625	-2.555654541015625	0		-0.9854886474609375	0.06966545104980469	0		-0.6571158447265625	-2.681757568359375	0		2.184602294921875	-1.6256973876953125	0		3.40369287109375	-0.726493896484375	0		4.580455078125	0.08735575866699219	0		6.0449091796875	0.5567026977539062	0		-0.16561149597167968	5.9236552734375	0		
-3.233340084552765E-4	-0.001991274952888489	0		0.4971142578125	-2.555018798828125	0		-0.9803981323242188	0.0652273178100586	0		-0.7179744873046875	-2.680176025390625	0		2.172657958984375	-1.6309114990234375	0		3.405928955078125	-0.7209420166015625	0		4.5975751953125	0.08466100311279297	0		6.0482080078125	0.5652054443359374	0		-0.1464644012451172	5.91798974609375	0		
